Format : AVI
      Format/Info : Audio Video Interleave
      File size : 631 MiB
      Duration : 2h 19mn
      Overall bit rate : 631 Kbps
      Writing library : Handbrake 0.9.4
   Video #0
      ID : 0
      Format : MPEG-4 Visual
      Format profile : AdvancedSimple@L5
      Format settings, BVOP : Yes
      Format settings, QPel : No
      Format settings, GMC : No warppoints
      Format settings, Matrix : Default (H.263)
      Codec ID : XVID
      Codec ID/Hint : XviD
      Duration : 2h 19mn
      Bit rate : 493 Kbps
      Width : 602 pixels
      Height : 256 pixels
      Display aspect ratio : 2.35:1
      Frame rate : 25.000 fps
      Resolution : 24 bits
      Colorimetry : 4:2:0
      Scan type : Progressive
      Bits/(Pixel*Frame) : 0.128
      Stream size : 493 MiB (78%)
      Writing library : XviD 1.2.1 (UTC 2008-12-04)
   Audio #1
      ID : 1
      Format : MPEG Audio
      Format version : Version 1
      Format profile : Layer 3
      Codec ID : 55
      Codec ID/Hint : MP3
      Duration : 2h 19mn
      Bit rate mode : Constant
      Bit rate : 128 Kbps
      Channel(s) : 2 channels
      Sampling rate : 44.1 KHz
      Resolution : 16 bits
      Stream size : 128 MiB (20%)

 
http://www.imdb.com/title/tt1375666/

 
http://a.imageshack.us/img814/913/inception2010tsripnewau.jpg

 
http://a.imageshack.us/img824/913/inception2010tsripnewau.jpg

 
http://a.imageshack.us/img64/913/inception2010tsripnewau.jpg

 
http://a.imageshack.us/img227/913/inception2010tsripnewau.jpg